<?xml version="1.0" encoding="UTF-8"?>
<svg version="1.1" xmlns="http://www.w3.org/2000/svg" width="640" height="427">
<path d="M0 0 C211.2 0 422.4 0 640 0 C640 140.91 640 281.82 640 427 C428.8 427 217.6 427 0 427 C0 286.09 0 145.18 0 0 Z " fill="#FEFEFE" transform="translate(0,0)"/>
<path d="M0 0 C70.29 0 140.58 0 213 0 C213 140.91 213 281.82 213 427 C142.71 427 72.42 427 0 427 C0 286.09 0 145.18 0 0 Z " fill="#D91022" transform="translate(427,0)"/>
<path d="M0 0 C70.29 0 140.58 0 213 0 C213 140.91 213 281.82 213 427 C142.71 427 72.42 427 0 427 C0 286.09 0 145.18 0 0 Z " fill="#D91022" transform="translate(0,0)"/>
</svg>
